<svg
  className='pt-2 pb-2 pl-2 pr-4'
  width='100%'
  height='100%'
  viewBox='0 0 500 1000'
  preserveAspectRatio='none'
  xmlns='http://www.w3.org/2000/svg'>
  <path
     d="M 0.12842482,16.031678 V 116.03168 H 121.12842 q 4,0 4,-4 V 20.031678 q 0,-4 -4,-4 z"
     fill="#4572a7"
     id="path2" />
  <path
     d="m 0.12842482,141.03168 v 100 H 246.12842 q 4,0 4,-4 v -92 q 0,-4 -4,-4 z"
     fill="#E64345"
     id="path4" />
  <path
     d="m 0.12842482,266.03168 v 100 H 496.12842 q 4,0 4,-4 v -92 q 0,-4 -4,-4 z"
     fill="#4572a7"
     id="path6" />
  <path
     d="m 0.12842482,391.03168 v 100 H 246.12842 q 4,0 4,-4 v -92 q 0,-4 -4,-4 z"
     fill="#E64345"
     id="path8" />
  <path
     d="m 0.12842482,516.03168 v 100 H 121.12842 q 4,0 4,-4 v -92 q 0,-4 -4,-4 z"
     fill="#4572a7"
     id="path10" />
  <path
     d="m 0.12842482,641.03168 v 100 H 371.12842 q 4,0 4,-4 v -92 q 0,-4 -4,-4 z"
     fill="#E64345"
     id="path12" />
  <path
     d="m 0.12842482,766.03168 v 100 H 371.12842 q 4,0 4,-4 v -92 q 0,-4 -4,-4 z"
     fill="#4572a7"
     id="path14" />
  <path
     d="m 0.12842482,891.03168 v 100 H 121.12842 q 4,0 4,-4 v -92 q 0,-4 -4,-4 z"
     fill="#E64345"
     id="path16" />
</svg>
